<svg width="80" height="80" viewBox="0 0 80 80" fill="none" xmlns="http://www.w3.org/2000/svg">
<rect width="80" height="80" rx="40" fill="#141461"/>
<path d="M60 49.5391H20V20.6328H60V49.5391Z" fill="#FFE477"/>
<path d="M60 20.6309H40V49.5371H60V20.6309Z" fill="#FFA733"/>
<path d="M51.7188 45.2422H28.2812V44.0703C28.2812 42.9934 27.4051 42.1172 26.3281 42.1172H25.1562V28.8359H26.3281C27.4051 28.8359 28.2812 27.9598 28.2812 26.8828V25.7109H51.7188V26.8828C51.7188 27.9598 52.5949 28.8359 53.6719 28.8359H54.8438V42.1172H53.6719C52.5949 42.1172 51.7188 42.9934 51.7188 44.0703V45.2422ZM30.4626 42.8984H49.5373C49.9429 41.4695 51.0709 40.3414 52.4999 39.9359V31.0173C51.0709 30.6118 49.9429 29.4837 49.5373 28.0547H30.4626C30.057 29.4837 28.929 30.6117 27.5 31.0173V39.9359C28.929 40.3413 30.057 41.4695 30.4626 42.8984Z" fill="#FF9A00"/>
<path d="M43.0922 33.9363C41.3872 32.2898 38.6128 32.2898 36.9078 33.9363L35.2797 32.2503C37.8825 29.7369 42.1174 29.7369 44.7203 32.2503L43.0922 33.9363Z" fill="#FFF5CC"/>
<path d="M38.3594 35.8652H30V38.209H38.3594V35.8652Z" fill="#FFF5CC"/>
<path d="M51.7188 26.8828V25.7109H40V28.0547H49.5374C49.943 29.4837 51.071 30.6117 52.5 31.0173V39.9359C51.071 40.3413 49.943 41.4695 49.5374 42.8984H40V45.2422H51.7188V44.0703C51.7188 42.9934 52.5949 42.1172 53.6719 42.1172H54.8438V28.8359H53.6719C52.5949 28.8359 51.7188 27.9598 51.7188 26.8828Z" fill="#E67500"/>
<path d="M43.0922 33.9363L44.7203 32.2503C43.4189 30.9936 41.7095 30.3652 40 30.3652V32.7014C41.1198 32.7015 42.2397 33.113 43.0922 33.9363Z" fill="#FFDAAA"/>
<path d="M36.6301 59.3696L34.6572 55.8184L31.1058 53.8454L39.6622 45.2891L45.1865 50.8133L36.6301 59.3696Z" fill="#B87FD9"/>
<path d="M53.0573 59.3695L44.501 50.8133L50.0253 45.2891L58.5816 53.8454L55.0303 55.8184L53.0573 59.3695Z" fill="#8034AD"/>
<path d="M44.8438 51.4922C40.7513 51.4922 37.4219 48.1627 37.4219 44.0703C37.4219 39.9779 40.7513 36.6484 44.8438 36.6484C48.9362 36.6484 52.2656 39.9779 52.2656 44.0703C52.2656 48.1627 48.9362 51.4922 44.8438 51.4922Z" fill="#E3CEF0"/>
<path d="M44.8438 36.6484V51.4922C48.9362 51.4922 52.2656 48.1627 52.2656 44.0703C52.2656 39.9779 48.9362 36.6484 44.8438 36.6484Z" fill="#D5B4E8"/>
<path d="M44.8438 47.5859C42.9052 47.5859 41.3281 46.0088 41.3281 44.0703C41.3281 42.1318 42.9052 40.5547 44.8438 40.5547C46.7823 40.5547 48.3594 42.1318 48.3594 44.0703C48.3594 46.0088 46.7823 47.5859 44.8438 47.5859ZM44.8438 42.8984C44.1976 42.8984 43.6719 43.4241 43.6719 44.0703C43.6719 44.7165 44.1976 45.2422 44.8438 45.2422C45.4899 45.2422 46.0156 44.7165 46.0156 44.0703C46.0156 43.4241 45.4899 42.8984 44.8438 42.8984Z" fill="#B87FD9"/>
<path d="M46.0156 44.0703C46.0156 44.7165 45.4899 45.2422 44.8438 45.2422V47.5859C46.7823 47.5859 48.3594 46.0088 48.3594 44.0703C48.3594 42.1318 46.7823 40.5547 44.8438 40.5547V42.8984C45.4899 42.8984 46.0156 43.4241 46.0156 44.0703Z" fill="#8034AD"/>
</svg>
