<svg width="80" height="80" viewBox="0 0 80 80" fill="none" xmlns="http://www.w3.org/2000/svg">
<rect width="80" height="80" rx="40" fill="#141461"/>
<path d="M58.6143 51.8573C58.6143 53.1142 56.7264 54.1333 54.398 54.1333C52.0696 54.1333 50.1818 53.1142 50.1818 51.8573V50.957H58.6143V51.8573Z" fill="#E8BB20"/>
<path d="M54.3969 53.2335C56.7255 53.2335 58.6132 52.2145 58.6132 50.9576C58.6132 49.7006 56.7255 48.6816 54.3969 48.6816C52.0683 48.6816 50.1807 49.7006 50.1807 50.9576C50.1807 52.2145 52.0683 53.2335 54.3969 53.2335Z" fill="#F5EA07"/>
<path d="M58.6143 50.4062C58.6143 51.663 56.7264 52.6821 54.398 52.6821C52.0696 52.6821 50.1818 51.663 50.1818 50.4062V49.5059H58.6143V50.4062Z" fill="#E8BB20"/>
<path d="M54.3969 51.7823C56.7255 51.7823 58.6132 50.7634 58.6132 49.5064C58.6132 48.2494 56.7255 47.2305 54.3969 47.2305C52.0683 47.2305 50.1807 48.2494 50.1807 49.5064C50.1807 50.7634 52.0683 51.7823 54.3969 51.7823Z" fill="#F5EA07"/>
<path d="M58.6143 48.955C58.6143 50.2119 56.7264 51.2309 54.398 51.2309C52.0696 51.2309 50.1818 50.2119 50.1818 48.955V48.0547H58.6143V48.955Z" fill="#E8BB20"/>
<path d="M54.3969 50.3312C56.7255 50.3312 58.6132 49.3122 58.6132 48.0552C58.6132 46.7983 56.7255 45.7793 54.3969 45.7793C52.0683 45.7793 50.1807 46.7983 50.1807 48.0552C50.1807 49.3122 52.0683 50.3312 54.3969 50.3312Z" fill="#F5EA07"/>
<path d="M58.6143 47.5038C58.6143 48.7607 56.7264 49.7798 54.398 49.7798C52.0696 49.7798 50.1818 48.7607 50.1818 47.5038V46.6035H58.6143V47.5038Z" fill="#E8BB20"/>
<path d="M54.3969 48.878C56.7255 48.878 58.6132 47.8591 58.6132 46.6021C58.6132 45.3451 56.7255 44.3262 54.3969 44.3262C52.0683 44.3262 50.1807 45.3451 50.1807 46.6021C50.1807 47.8591 52.0683 48.878 54.3969 48.878Z" fill="#F5EA07"/>
<path d="M58.6143 46.0527C58.6143 47.3095 56.7264 48.3286 54.398 48.3286C52.0696 48.3286 50.1818 47.3095 50.1818 46.0527V45.1523H58.6143V46.0527Z" fill="#E8BB20"/>
<path d="M54.3969 47.4288C56.7255 47.4288 58.6132 46.4099 58.6132 45.1529C58.6132 43.8959 56.7255 42.877 54.3969 42.877C52.0683 42.877 50.1807 43.8959 50.1807 45.1529C50.1807 46.4099 52.0683 47.4288 54.3969 47.4288Z" fill="#F5EA07"/>
<path d="M58.6143 44.6015C58.6143 45.8584 56.7264 46.8774 54.398 46.8774C52.0696 46.8774 50.1818 45.8584 50.1818 44.6015V43.7012H58.6143V44.6015Z" fill="#E8BB20"/>
<path d="M54.3969 45.9757C56.7255 45.9757 58.6132 44.9567 58.6132 43.6998C58.6132 42.4428 56.7255 41.4238 54.3969 41.4238C52.0683 41.4238 50.1807 42.4428 50.1807 43.6998C50.1807 44.9567 52.0683 45.9757 54.3969 45.9757Z" fill="#F5EA07"/>
<path d="M58.6143 43.1484C58.6143 44.4052 56.7264 45.4243 54.398 45.4243C52.0696 45.4243 50.1818 44.4052 50.1818 43.1484V42.248H58.6143V43.1484Z" fill="#E8BB20"/>
<path d="M54.3969 44.5265C56.7255 44.5265 58.6132 43.5075 58.6132 42.2505C58.6132 40.9936 56.7255 39.9746 54.3969 39.9746C52.0683 39.9746 50.1807 40.9936 50.1807 42.2505C50.1807 43.5075 52.0683 44.5265 54.3969 44.5265Z" fill="#F5EA07"/>
<path d="M58.6143 41.6991C58.6143 42.956 56.7264 43.9751 54.398 43.9751C52.0696 43.9751 50.1818 42.956 50.1818 41.6991V40.7988H58.6143V41.6991Z" fill="#E8BB20"/>
<path d="M54.3969 43.0773C56.7255 43.0773 58.6132 42.0583 58.6132 40.8013C58.6132 39.5444 56.7255 38.5254 54.3969 38.5254C52.0683 38.5254 50.1807 39.5444 50.1807 40.8013C50.1807 42.0583 52.0683 43.0773 54.3969 43.0773Z" fill="#F5EA07"/>
<path d="M58.6143 40.248C58.6143 41.5048 56.7264 42.5239 54.398 42.5239C52.0696 42.5239 50.1818 41.5048 50.1818 40.248V39.3477H58.6143V40.248Z" fill="#E8BB20"/>
<path d="M54.3969 41.6241C56.7255 41.6241 58.6132 40.6052 58.6132 39.3482C58.6132 38.0912 56.7255 37.0723 54.3969 37.0723C52.0683 37.0723 50.1807 38.0912 50.1807 39.3482C50.1807 40.6052 52.0683 41.6241 54.3969 41.6241Z" fill="#F5EA07"/>
<path d="M58.6143 38.7968C58.6143 40.0537 56.7264 41.0727 54.398 41.0727C52.0696 41.0727 50.1818 40.0537 50.1818 38.7968V37.8965H58.6143V38.7968Z" fill="#E8BB20"/>
<path d="M54.3969 40.173C56.7255 40.173 58.6132 39.154 58.6132 37.897C58.6132 36.6401 56.7255 35.6211 54.3969 35.6211C52.0683 35.6211 50.1807 36.6401 50.1807 37.897C50.1807 39.154 52.0683 40.173 54.3969 40.173Z" fill="#F5EA07"/>
<path d="M58.6143 37.3456C58.6143 38.6025 56.7264 39.6216 54.398 39.6216C52.0696 39.6216 50.1818 38.6025 50.1818 37.3456V36.4453H58.6143V37.3456Z" fill="#E8BB20"/>
<path d="M54.3969 38.7218C56.7255 38.7218 58.6132 37.7028 58.6132 36.4459C58.6132 35.1889 56.7255 34.1699 54.3969 34.1699C52.0683 34.1699 50.1807 35.1889 50.1807 36.4459C50.1807 37.7028 52.0683 38.7218 54.3969 38.7218Z" fill="#F5EA07"/>
<path d="M58.6143 35.8945C58.6143 37.1513 56.7264 38.1704 54.398 38.1704C52.0696 38.1704 50.1818 37.1513 50.1818 35.8945V34.9941H58.6143V35.8945Z" fill="#E8BB20"/>
<path d="M54.3969 37.2706C56.7255 37.2706 58.6132 36.2517 58.6132 34.9947C58.6132 33.7377 56.7255 32.7188 54.3969 32.7188C52.0683 32.7188 50.1807 33.7377 50.1807 34.9947C50.1807 36.2517 52.0683 37.2706 54.3969 37.2706Z" fill="#F5EA07"/>
<path d="M54.3978 36.7952C52.406 36.7952 50.785 35.987 50.785 34.9933C50.785 33.9995 52.406 33.1914 54.3978 33.1914C56.3897 33.1914 58.0107 33.9995 58.0107 34.9933C58.0107 35.987 56.3897 36.7952 54.3978 36.7952ZM54.3978 33.5095C52.7569 33.5095 51.4219 34.1752 51.4219 34.9936C51.4219 35.812 52.7569 36.4777 54.3978 36.4777C56.0388 36.4777 57.3738 35.812 57.3738 34.9936C57.3735 34.1752 56.0385 33.5095 54.3978 33.5095Z" fill="#E8BB20"/>
<path d="M54.2819 36.0834V35.8915C53.8004 35.8671 53.3682 35.7715 52.9854 35.6049L53.37 35.3762C53.6654 35.504 53.9691 35.5802 54.2819 35.6049V35.0949C53.8847 35.0477 53.5941 34.9855 53.4097 34.9084C53.2254 34.8312 53.1329 34.7168 53.1329 34.5652C53.1329 34.4137 53.2391 34.2896 53.4519 34.1934C53.6644 34.0971 53.9413 34.0446 54.2822 34.0359V33.9043H54.6197V34.0384C55.0063 34.0524 55.3716 34.118 55.716 34.2355L55.3732 34.4774C55.1413 34.3949 54.89 34.3443 54.6194 34.3249V34.819H54.6354C55.0394 34.8665 55.3363 34.9302 55.526 35.0109C55.7157 35.0915 55.8107 35.2084 55.8107 35.3618C55.8107 35.5152 55.7016 35.6402 55.4838 35.7365C55.266 35.833 54.9779 35.8855 54.6194 35.8943V36.0834H54.2819ZM53.9104 34.3868C53.821 34.4262 53.776 34.4752 53.776 34.534C53.776 34.5927 53.811 34.639 53.8813 34.6734C53.9516 34.7077 54.085 34.7405 54.2819 34.7721V34.3174C54.1238 34.324 54 34.3474 53.9104 34.3868ZM55.02 35.5393C55.1182 35.499 55.1675 35.4484 55.1675 35.3868C55.1675 35.3255 55.1288 35.2768 55.0516 35.2409C54.9744 35.2049 54.8304 35.1712 54.6194 35.1396V35.6127C54.7879 35.6043 54.9216 35.5796 55.02 35.5393Z" fill="#E8BB20"/>
<path d="M39.4168 51.8573C39.4168 53.1142 37.5289 54.1333 35.2005 54.1333C32.8721 54.1333 30.9843 53.1142 30.9843 51.8573V50.957H39.4168V51.8573Z" fill="#E8BB20"/>
<path d="M35.2005 53.2335C37.5291 53.2335 39.4168 52.2145 39.4168 50.9576C39.4168 49.7006 37.5291 48.6816 35.2005 48.6816C32.8719 48.6816 30.9843 49.7006 30.9843 50.9576C30.9843 52.2145 32.8719 53.2335 35.2005 53.2335Z" fill="#F5EA07"/>
<path d="M39.4168 50.4062C39.4168 51.663 37.5289 52.6821 35.2005 52.6821C32.8721 52.6821 30.9843 51.663 30.9843 50.4062V49.5059H39.4168V50.4062Z" fill="#E8BB20"/>
<path d="M35.2005 51.7823C37.5291 51.7823 39.4168 50.7634 39.4168 49.5064C39.4168 48.2494 37.5291 47.2305 35.2005 47.2305C32.8719 47.2305 30.9843 48.2494 30.9843 49.5064C30.9843 50.7634 32.8719 51.7823 35.2005 51.7823Z" fill="#F5EA07"/>
<path d="M39.4168 48.955C39.4168 50.2119 37.5289 51.2309 35.2005 51.2309C32.8721 51.2309 30.9843 50.2119 30.9843 48.955V48.0547H39.4168V48.955Z" fill="#E8BB20"/>
<path d="M35.2005 50.3312C37.5291 50.3312 39.4168 49.3122 39.4168 48.0552C39.4168 46.7983 37.5291 45.7793 35.2005 45.7793C32.8719 45.7793 30.9843 46.7983 30.9843 48.0552C30.9843 49.3122 32.8719 50.3312 35.2005 50.3312Z" fill="#F5EA07"/>
<path d="M39.4168 47.5038C39.4168 48.7607 37.5289 49.7798 35.2005 49.7798C32.8721 49.7798 30.9843 48.7607 30.9843 47.5038V46.6035H39.4168V47.5038Z" fill="#E8BB20"/>
<path d="M35.2005 48.878C37.5291 48.878 39.4168 47.8591 39.4168 46.6021C39.4168 45.3451 37.5291 44.3262 35.2005 44.3262C32.8719 44.3262 30.9843 45.3451 30.9843 46.6021C30.9843 47.8591 32.8719 48.878 35.2005 48.878Z" fill="#F5EA07"/>
<path d="M39.4168 46.0527C39.4168 47.3095 37.5289 48.3286 35.2005 48.3286C32.8721 48.3286 30.9843 47.3098 30.9843 46.0527V45.1523H39.4168V46.0527Z" fill="#E8BB20"/>
<path d="M35.2005 47.4288C37.5291 47.4288 39.4168 46.4099 39.4168 45.1529C39.4168 43.8959 37.5291 42.877 35.2005 42.877C32.8719 42.877 30.9843 43.8959 30.9843 45.1529C30.9843 46.4099 32.8719 47.4288 35.2005 47.4288Z" fill="#F5EA07"/>
<path d="M39.4168 44.6015C39.4168 45.8584 37.5289 46.8774 35.2005 46.8774C32.8721 46.8774 30.9843 45.8587 30.9843 44.6015V43.7012H39.4168V44.6015Z" fill="#E8BB20"/>
<path d="M35.2005 45.9757C37.5291 45.9757 39.4168 44.9567 39.4168 43.6998C39.4168 42.4428 37.5291 41.4238 35.2005 41.4238C32.8719 41.4238 30.9843 42.4428 30.9843 43.6998C30.9843 44.9567 32.8719 45.9757 35.2005 45.9757Z" fill="#F5EA07"/>
<path d="M39.4168 43.1484C39.4168 44.4052 37.5289 45.4243 35.2005 45.4243C32.8721 45.4243 30.9843 44.4055 30.9843 43.1484V42.248H39.4168V43.1484Z" fill="#E8BB20"/>
<path d="M35.2005 44.5265C37.5291 44.5265 39.4168 43.5075 39.4168 42.2505C39.4168 40.9936 37.5291 39.9746 35.2005 39.9746C32.8719 39.9746 30.9843 40.9936 30.9843 42.2505C30.9843 43.5075 32.8719 44.5265 35.2005 44.5265Z" fill="#F5EA07"/>
<path d="M39.4168 41.6991C39.4168 42.956 37.5289 43.9751 35.2005 43.9751C32.8721 43.9751 30.9843 42.956 30.9843 41.6991V40.7988H39.4168V41.6991Z" fill="#E8BB20"/>
<path d="M35.2005 43.0773C37.5291 43.0773 39.4168 42.0583 39.4168 40.8013C39.4168 39.5444 37.5291 38.5254 35.2005 38.5254C32.8719 38.5254 30.9843 39.5444 30.9843 40.8013C30.9843 42.0583 32.8719 43.0773 35.2005 43.0773Z" fill="#F5EA07"/>
<path d="M39.4168 40.248C39.4168 41.5048 37.5289 42.5239 35.2005 42.5239C32.8721 42.5239 30.9843 41.5048 30.9843 40.248V39.3477H39.4168V40.248Z" fill="#E8BB20"/>
<path d="M35.2005 41.6241C37.5291 41.6241 39.4168 40.6052 39.4168 39.3482C39.4168 38.0912 37.5291 37.0723 35.2005 37.0723C32.8719 37.0723 30.9843 38.0912 30.9843 39.3482C30.9843 40.6052 32.8719 41.6241 35.2005 41.6241Z" fill="#F5EA07"/>
<path d="M35.2005 41.1487C33.2086 41.1487 31.5876 40.3406 31.5876 39.3468C31.5876 38.353 33.2086 37.5449 35.2005 37.5449C37.1923 37.5449 38.8133 38.353 38.8133 39.3468C38.8133 40.3406 37.1926 41.1487 35.2005 41.1487ZM35.2005 37.863C33.5595 37.863 32.2245 38.5287 32.2245 39.3471C32.2245 40.1656 33.5595 40.8312 35.2005 40.8312C36.8414 40.8312 38.1764 40.1656 38.1764 39.3471C38.1764 38.5287 36.8414 37.863 35.2005 37.863Z" fill="#E8BB20"/>
<path d="M35.0849 40.4369V40.245C34.6033 40.2206 34.1711 40.125 33.7883 39.9584L34.173 39.7297C34.4683 39.8575 34.7721 39.9337 35.0849 39.9584V39.4484C34.6877 39.4012 34.3971 39.3391 34.2127 39.2619C34.0283 39.1847 33.9358 39.0703 33.9358 38.9187C33.9358 38.7672 34.0421 38.6431 34.2549 38.5469C34.4674 38.4506 34.7443 38.3981 35.0852 38.3894V38.2578H35.4227V38.3919C35.8093 38.4059 36.1746 38.4716 36.519 38.5891L36.1761 38.8309C35.9443 38.7484 35.693 38.6978 35.4224 38.6784V39.1725H35.4383C35.8424 39.22 36.1393 39.2837 36.329 39.3644C36.5186 39.445 36.6136 39.5619 36.6136 39.7153C36.6136 39.8687 36.5046 39.9937 36.2868 40.09C36.069 40.1866 35.7808 40.2391 35.4224 40.2478V40.4369H35.0849ZM34.7133 38.7403C34.624 38.7797 34.579 38.8287 34.579 38.8875C34.579 38.9462 34.614 38.9925 34.6843 39.0269C34.7546 39.0612 34.888 39.0941 35.0849 39.1256V38.6709C34.9268 38.6775 34.803 38.7006 34.7133 38.7403ZM35.823 39.8928C35.9211 39.8525 35.9705 39.8019 35.9705 39.7403C35.9705 39.6791 35.9318 39.6303 35.8546 39.5944C35.7774 39.5584 35.6333 39.5247 35.4224 39.4931V39.9662C35.5908 39.9575 35.7246 39.9331 35.823 39.8928Z" fill="#E8BB20"/>
<path d="M49.0158 51.8573C49.0158 53.1142 47.1279 54.1333 44.7995 54.1333C42.4711 54.1333 40.5833 53.1142 40.5833 51.8573V50.957H49.0158V51.8573Z" fill="#E8BB20"/>
<path d="M44.7999 53.2335C47.1284 53.2335 49.0161 52.2145 49.0161 50.9576C49.0161 49.7006 47.1284 48.6816 44.7999 48.6816C42.4713 48.6816 40.5836 49.7006 40.5836 50.9576C40.5836 52.2145 42.4713 53.2335 44.7999 53.2335Z" fill="#F5EA07"/>
<path d="M49.0158 50.4062C49.0158 51.663 47.1279 52.6821 44.7995 52.6821C42.4711 52.6821 40.5833 51.663 40.5833 50.4062V49.5059H49.0158V50.4062Z" fill="#E8BB20"/>
<path d="M44.7999 51.7823C47.1284 51.7823 49.0161 50.7634 49.0161 49.5064C49.0161 48.2494 47.1284 47.2305 44.7999 47.2305C42.4713 47.2305 40.5836 48.2494 40.5836 49.5064C40.5836 50.7634 42.4713 51.7823 44.7999 51.7823Z" fill="#F5EA07"/>
<path d="M49.0158 48.955C49.0158 50.2119 47.1279 51.2309 44.7995 51.2309C42.4711 51.2309 40.5833 50.2119 40.5833 48.955V48.0547H49.0158V48.955Z" fill="#E8BB20"/>
<path d="M44.7999 50.3312C47.1284 50.3312 49.0161 49.3122 49.0161 48.0552C49.0161 46.7983 47.1284 45.7793 44.7999 45.7793C42.4713 45.7793 40.5836 46.7983 40.5836 48.0552C40.5836 49.3122 42.4713 50.3312 44.7999 50.3312Z" fill="#F5EA07"/>
<path d="M49.0158 47.5038C49.0158 48.7607 47.1279 49.7798 44.7995 49.7798C42.4711 49.7798 40.5833 48.7607 40.5833 47.5038V46.6035H49.0158V47.5038Z" fill="#E8BB20"/>
<path d="M44.7999 48.878C47.1284 48.878 49.0161 47.8591 49.0161 46.6021C49.0161 45.3451 47.1284 44.3262 44.7999 44.3262C42.4713 44.3262 40.5836 45.3451 40.5836 46.6021C40.5836 47.8591 42.4713 48.878 44.7999 48.878Z" fill="#F5EA07"/>
<path d="M49.0158 46.0527C49.0158 47.3095 47.1279 48.3286 44.7995 48.3286C42.4711 48.3286 40.5833 47.3095 40.5833 46.0527V45.1523H49.0158V46.0527Z" fill="#E8BB20"/>
<path d="M44.7999 47.4288C47.1284 47.4288 49.0161 46.4099 49.0161 45.1529C49.0161 43.8959 47.1284 42.877 44.7999 42.877C42.4713 42.877 40.5836 43.8959 40.5836 45.1529C40.5836 46.4099 42.4713 47.4288 44.7999 47.4288Z" fill="#F5EA07"/>
<path d="M49.0158 44.6015C49.0158 45.8584 47.1279 46.8774 44.7995 46.8774C42.4711 46.8774 40.5833 45.8584 40.5833 44.6015V43.7012H49.0158V44.6015Z" fill="#E8BB20"/>
<path d="M44.7999 45.9757C47.1284 45.9757 49.0161 44.9567 49.0161 43.6998C49.0161 42.4428 47.1284 41.4238 44.7999 41.4238C42.4713 41.4238 40.5836 42.4428 40.5836 43.6998C40.5836 44.9567 42.4713 45.9757 44.7999 45.9757Z" fill="#F5EA07"/>
<path d="M44.7993 45.5022C42.8075 45.5022 41.1865 44.6941 41.1865 43.7003C41.1865 42.7069 42.8075 41.8984 44.7993 41.8984C46.7912 41.8984 48.4121 42.7066 48.4121 43.7003C48.4121 44.6937 46.7912 45.5022 44.7993 45.5022ZM44.7993 42.2162C43.1584 42.2162 41.8234 42.8819 41.8234 43.7003C41.8234 44.5187 43.1584 45.1844 44.7993 45.1844C46.4403 45.1844 47.7753 44.5187 47.7753 43.7003C47.775 42.8819 46.44 42.2162 44.7993 42.2162Z" fill="#E8BB20"/>
<path d="M44.6834 44.7904V44.5985C44.2018 44.5741 43.7697 44.4785 43.3868 44.312L43.7715 44.0832C44.0668 44.211 44.3706 44.2873 44.6834 44.312V43.802C44.2862 43.7548 43.9956 43.6926 43.8112 43.6154C43.6268 43.5382 43.5343 43.4238 43.5343 43.2723C43.5343 43.1207 43.6406 42.9966 43.8534 42.9004C44.0659 42.8041 44.3428 42.7516 44.6837 42.7429V42.6113H45.0212V42.7454C45.4078 42.7595 45.7731 42.8251 46.1175 42.9426L45.7747 43.1845C45.5428 43.102 45.2915 43.0513 45.0209 43.032V43.526H45.0368C45.4409 43.5735 45.7378 43.6373 45.9275 43.7179C46.1172 43.7985 46.2122 43.9154 46.2122 44.0688C46.2122 44.2223 46.1031 44.3473 45.8853 44.4435C45.6675 44.5401 45.3793 44.5926 45.0209 44.6013V44.7904H44.6834ZM44.3118 43.0938C44.2225 43.1332 44.1775 43.1823 44.1775 43.241C44.1775 43.2998 44.2125 43.346 44.2828 43.3804C44.3531 43.4148 44.4865 43.4476 44.6834 43.4791V43.0245C44.5253 43.0313 44.4015 43.0545 44.3118 43.0938ZM45.4215 44.2463C45.5197 44.206 45.569 44.1554 45.569 44.0938C45.569 44.0326 45.5303 43.9838 45.4531 43.9479C45.3759 43.912 45.2318 43.8782 45.0209 43.8466V44.3198C45.1893 44.3113 45.3231 44.2866 45.4215 44.2463Z" fill="#E8BB20"/>
<path d="M29.8182 51.8573C29.8182 53.1142 27.9304 54.1333 25.602 54.1333C23.2736 54.1333 21.3857 53.1142 21.3857 51.8573V50.957H29.8182V51.8573Z" fill="#E8BB20"/>
<path d="M25.602 53.2335C27.9306 53.2335 29.8182 52.2145 29.8182 50.9576C29.8182 49.7006 27.9306 48.6816 25.602 48.6816C23.2734 48.6816 21.3857 49.7006 21.3857 50.9576C21.3857 52.2145 23.2734 53.2335 25.602 53.2335Z" fill="#F5EA07"/>
<path d="M29.8182 50.4062C29.8182 51.663 27.9304 52.6821 25.602 52.6821C23.2736 52.6821 21.3857 51.663 21.3857 50.4062V49.5059H29.8182V50.4062Z" fill="#E8BB20"/>
<path d="M25.602 51.7823C27.9306 51.7823 29.8182 50.7634 29.8182 49.5064C29.8182 48.2494 27.9306 47.2305 25.602 47.2305C23.2734 47.2305 21.3857 48.2494 21.3857 49.5064C21.3857 50.7634 23.2734 51.7823 25.602 51.7823Z" fill="#F5EA07"/>
<path d="M29.8182 48.955C29.8182 50.2119 27.9304 51.2309 25.602 51.2309C23.2736 51.2309 21.3857 50.2119 21.3857 48.955V48.0547H29.8182V48.955Z" fill="#E8BB20"/>
<path d="M25.602 50.3312C27.9306 50.3312 29.8182 49.3122 29.8182 48.0552C29.8182 46.7983 27.9306 45.7793 25.602 45.7793C23.2734 45.7793 21.3857 46.7983 21.3857 48.0552C21.3857 49.3122 23.2734 50.3312 25.602 50.3312Z" fill="#F5EA07"/>
<path d="M29.8182 47.5038C29.8182 48.7607 27.9304 49.7798 25.602 49.7798C23.2736 49.7798 21.3857 48.7607 21.3857 47.5038V46.6035H29.8182V47.5038Z" fill="#E8BB20"/>
<path d="M25.602 48.878C27.9306 48.878 29.8182 47.8591 29.8182 46.6021C29.8182 45.3451 27.9306 44.3262 25.602 44.3262C23.2734 44.3262 21.3857 45.3451 21.3857 46.6021C21.3857 47.8591 23.2734 48.878 25.602 48.878Z" fill="#F5EA07"/>
<path d="M25.6015 48.4065C23.6096 48.4065 21.9886 47.5984 21.9886 46.6046C21.9886 45.6112 23.6096 44.8027 25.6015 44.8027C27.5933 44.8027 29.2143 45.6109 29.2143 46.6046C29.2146 47.5984 27.5936 48.4065 25.6015 48.4065ZM25.6015 45.1209C23.9605 45.1209 22.6255 45.7865 22.6255 46.6049C22.6255 47.4234 23.9605 48.089 25.6015 48.089C27.2424 48.089 28.5774 47.4234 28.5774 46.6049C28.5774 45.7865 27.2424 45.1209 25.6015 45.1209Z" fill="#E8BB20"/>
<path d="M25.4859 47.6947V47.5028C25.0043 47.4784 24.5721 47.3828 24.1893 47.2163L24.574 46.9875C24.8693 47.1153 25.1731 47.1916 25.4859 47.2163V46.7063C25.0887 46.6591 24.7981 46.5969 24.6137 46.5197C24.4293 46.4425 24.3368 46.3281 24.3368 46.1766C24.3368 46.025 24.4431 45.9009 24.6559 45.8047C24.8684 45.7084 25.1453 45.6559 25.4862 45.6472V45.5156H25.8237V45.6497C26.2103 45.6638 26.5756 45.7294 26.92 45.8469L26.5771 46.0887C26.3453 46.0062 26.094 45.9556 25.8234 45.9363V46.4303H25.8393C26.2434 46.4778 26.5403 46.5416 26.73 46.6222C26.9196 46.7028 27.0146 46.8197 27.0146 46.9731C27.0146 47.1266 26.9056 47.2516 26.6878 47.3478C26.47 47.4444 26.1818 47.4969 25.8234 47.5056V47.6947H25.4859ZM25.1143 45.9981C25.025 46.0375 24.98 46.0866 24.98 46.1453C24.98 46.2041 25.015 46.2503 25.0853 46.2847C25.1556 46.3191 25.289 46.3519 25.4859 46.3834V45.9288C25.3278 45.9353 25.204 45.9588 25.1143 45.9981ZM26.2237 47.1506C26.3218 47.1103 26.3712 47.0597 26.3712 46.9981C26.3712 46.9369 26.3325 46.8881 26.2553 46.8522C26.1781 46.8162 26.034 46.7825 25.8231 46.7509V47.2241C25.9918 47.2156 26.1253 47.1909 26.2237 47.1506Z" fill="#E8BB20"/>
<path d="M55.9538 28.6511H53.866C53.0826 28.6511 53.0816 27.4648 53.866 27.4648H55.9538C56.2813 27.4648 56.5469 27.7305 56.5469 28.058C56.5469 28.3855 56.2813 28.6511 55.9538 28.6511Z" fill="#FDFEFF"/>
<path d="M42.6968 36.5235L36.0715 31.547C35.4458 31.0767 36.1558 30.1276 36.784 30.5982L43.4093 35.5748C44.0333 36.0439 43.3261 36.9951 42.6968 36.5235Z" fill="#FDFEFF"/>
<path d="M24.3337 38.7624H21.8931C21.5656 38.7624 21.2999 38.4968 21.2999 38.1693C21.2999 37.8418 21.5656 37.5762 21.8931 37.5762H24.3337C25.1171 37.5762 25.1181 38.7624 24.3337 38.7624Z" fill="#FDFEFF"/>
<path d="M26.7233 36.6655L33.3399 30.7548C33.9239 30.2333 34.7155 31.1167 34.1302 31.6392L27.5136 37.5501C26.9295 38.072 26.138 37.188 26.7233 36.6655Z" fill="#FDFEFF"/>
<path d="M45.0567 35.3906L50.7714 28.8662C51.2873 28.2756 52.1805 29.0584 51.6636 29.6474L45.9492 36.1721C45.4358 36.759 44.5383 35.9818 45.0567 35.3906Z" fill="#FDFEFF"/>
<path d="M52.2686 30.2472C51.0611 30.2472 50.0786 29.2647 50.0786 28.0572C50.0786 26.8497 51.0611 25.8672 52.2686 25.8672C53.4761 25.8672 54.4586 26.8497 54.4586 28.0572C54.4586 29.2647 53.4764 30.2472 52.2686 30.2472ZM52.2686 27.0534C51.7152 27.0534 51.2649 27.5038 51.2649 28.0572C51.2649 28.6106 51.7152 29.0609 52.2686 29.0609C53.5949 29.0609 53.5955 27.0534 52.2686 27.0534Z" fill="#FDFEFF"/>
<path d="M44.3899 39.1121C43.1824 39.1121 42.2 38.1296 42.2 36.9221C42.2 35.7146 43.1824 34.7324 44.3899 34.7324C45.5974 34.7324 46.58 35.7149 46.58 36.9221C46.5796 38.1296 45.5974 39.1121 44.3899 39.1121ZM44.3899 35.9184C43.8365 35.9184 43.3862 36.3684 43.3862 36.9218C43.3862 37.4752 43.8365 37.9255 44.3899 37.9255C44.9434 37.9255 45.3937 37.4752 45.3937 36.9218C45.3937 36.3684 44.9434 35.9184 44.3899 35.9184Z" fill="#FDFEFF"/>
<path d="M35.04 32.4718C33.8325 32.4718 32.85 31.4893 32.85 30.2818C32.85 29.0743 33.8325 28.0918 35.04 28.0918C36.2475 28.0918 37.23 29.0743 37.23 30.2818C37.23 31.4893 36.2475 32.4718 35.04 32.4718ZM35.04 29.2777C34.4865 29.2777 34.0362 29.728 34.0362 30.2815C34.0362 30.8349 34.4865 31.2852 35.04 31.2852C35.5934 31.2852 36.0437 30.8349 36.0437 30.2815C36.0437 29.728 35.5934 29.2777 35.04 29.2777Z" fill="#FDFEFF"/>
<path d="M25.9307 40.3605C24.7232 40.3605 23.7407 39.378 23.7407 38.1705C23.7407 36.963 24.7232 35.9805 25.9307 35.9805C27.1382 35.9805 28.1207 36.963 28.1207 38.1705C28.1207 39.378 27.1382 40.3605 25.9307 40.3605ZM25.9307 37.1667C24.6045 37.1667 24.6038 39.1742 25.9307 39.1742C26.4842 39.1742 26.9345 38.7239 26.9345 38.1705C26.9345 37.617 26.4842 37.1667 25.9307 37.1667Z" fill="#FDFEFF"/>
</svg>
