<svg width="80" height="80" viewBox="0 0 80 80" fill="none" xmlns="http://www.w3.org/2000/svg">
<rect width="80" height="80" rx="40" fill="#141461"/>
<g clip-path="url(#clip0)">
<path d="M55.3107 46.7117C54.2355 49.6255 52.6096 52.1591 50.4773 54.2413C48.0502 56.6113 44.8721 58.4946 41.0312 59.8379C40.9052 59.8819 40.7736 59.9179 40.6415 59.9444C40.4669 59.9789 40.2893 59.9975 40.1132 60H40.0787C39.8911 60 39.7025 59.9811 39.5154 59.9444C39.3832 59.9179 39.2535 59.8819 39.1281 59.8389C35.2826 58.4976 32.1005 56.6153 29.671 54.2453C27.5378 52.1631 25.9122 49.631 24.8386 46.7172C22.8863 41.4194 22.9974 35.5832 23.0868 30.8932L23.0884 30.8212C23.1064 30.4339 23.118 30.0271 23.1244 29.5779C23.157 27.3724 24.9106 25.5478 27.1164 25.4248C31.7154 25.1681 35.2731 23.6682 38.313 20.7052L38.3395 20.6808C38.8443 20.2179 39.4803 19.9908 40.1132 20.0003C40.7236 20.0082 41.3315 20.235 41.8182 20.6808L41.8442 20.7052C44.8847 23.6682 48.4424 25.1681 53.0414 25.4248C55.2472 25.5478 57.0008 27.3724 57.0334 29.5779C57.0398 30.0302 57.0514 30.4364 57.0694 30.8212L57.0703 30.8517C57.1594 35.5505 57.2699 41.3983 55.3107 46.7117Z" fill="#00DD80"/>
<path d="M55.3107 46.7114C54.2356 49.6253 52.6096 52.1588 50.4774 54.2411C48.0503 56.6111 44.8722 58.4943 41.0312 59.8377C40.9052 59.8816 40.7737 59.9176 40.6415 59.9442C40.467 59.9787 40.2894 59.9973 40.1133 59.9997V20C40.7236 20.0079 41.3315 20.2347 41.8183 20.6805L41.8442 20.705C44.8847 23.6679 48.4424 25.1679 53.0414 25.4245C55.2473 25.5475 57.0008 27.3721 57.0334 29.5776C57.0399 30.0299 57.0515 30.4361 57.0695 30.8209L57.0704 30.8514C57.1595 35.5502 57.27 41.398 55.3107 46.7114Z" fill="#00AA63"/>
<path d="M50.0471 39.9982C50.0471 45.4831 45.5936 49.9478 40.1133 49.9674H40.0782C34.5817 49.9674 30.109 45.495 30.109 39.9982C30.109 34.5017 34.5817 30.0293 40.0782 30.0293H40.1133C45.5936 30.0488 50.0471 34.5136 50.0471 39.9982Z" fill="white"/>
<path d="M50.0471 39.9982C50.0471 45.4831 45.5936 49.9478 40.1133 49.9674V30.0293C45.5936 30.0488 50.0471 34.5136 50.0471 39.9982Z" fill="#E1EBF0"/>
<path d="M44.603 38.5661L40.1132 43.0564L39.1431 44.0266C38.9139 44.2558 38.6133 44.3702 38.313 44.3702C38.0124 44.3702 37.7121 44.2558 37.4826 44.0266L35.3968 41.9398C34.9384 41.4814 34.9384 40.7389 35.3968 40.2802C35.8545 39.8219 36.5979 39.8219 37.0563 40.2802L38.313 41.537L42.9434 36.9065C43.4018 36.4478 44.1452 36.4478 44.603 36.9065C45.0614 37.3649 45.0614 38.1083 44.603 38.5661Z" fill="#B4D2D7"/>
<path d="M44.603 38.5661L40.1133 43.0564V39.7364L42.9435 36.9065C43.4019 36.4478 44.1453 36.4478 44.603 36.9065C45.0614 37.3649 45.0614 38.1083 44.603 38.5661Z" fill="#6FA5AA"/>
</g>
<defs>
<clipPath id="clip0">
<rect width="40" height="40" fill="white" transform="translate(20 20)"/>
</clipPath>
</defs>
</svg>
