<svg width="40" height="44" viewBox="0 0 40 44" fill="none" xmlns="http://www.w3.org/2000/svg">
<g filter="url(#filter0_d)">
<rect width="40" height="40" rx="10" transform="matrix(-1 0 0 1 40 0)" fill="#4E01CE"/>
<g clip-path="url(#clip0)">
<path d="M11.3731 19.4166L28.087 11.7025C28.3531 11.5816 28.6707 11.6536 28.8558 11.8825C29.0422 12.1113 29.0487 12.4366 28.8712 12.6719L23.375 20.0003L28.8712 27.3287C29.0487 27.564 29.0422 27.8905 28.8571 28.1181C28.7324 28.2737 28.546 28.3572 28.357 28.3572C28.2657 28.3572 28.1744 28.3379 28.0883 28.2981L11.3744 20.584C11.1455 20.4786 11.0003 20.251 11.0003 20.0003C11.0003 19.7496 11.1455 19.522 11.3731 19.4166Z" fill="white"/>
</g>
</g>
<defs>
<filter id="filter0_d" x="0" y="0" width="40" height="44" filterUnits="userSpaceOnUse" color-interpolation-filters="sRGB">
<feFlood flood-opacity="0" result="BackgroundImageFix"/>
<feColorMatrix in="SourceAlpha" type="matrix" values="0 0 0 0 0 0 0 0 0 0 0 0 0 0 0 0 0 0 127 0" result="hardAlpha"/>
<feOffset dy="4"/>
<feColorMatrix type="matrix" values="0 0 0 0 0.279317 0 0 0 0 0.02625 0 0 0 0 0.7 0 0 0 1 0"/>
<feBlend mode="normal" in2="BackgroundImageFix" result="effect1_dropShadow"/>
<feBlend mode="normal" in="SourceGraphic" in2="effect1_dropShadow" result="shape"/>
</filter>
<clipPath id="clip0">
<rect width="18" height="18" fill="white" transform="matrix(-1 0 0 1 29 11)"/>
</clipPath>
</defs>
</svg>
